<svg width="233" height="88" viewBox="0 0 233 88" fill="none" xmlns="http://www.w3.org/2000/svg">
<path d="M97.6447 54.0227V40.1021H107.164V42.2554H100.006V45.6552H106.541V47.8085H100.006V51.8695H107.164V54.0227H97.6447ZM109.654 54.0227V52.6439H114.886L115.773 51.7372V50.5473L114.829 49.6029H110.919L109.181 47.9029V45.9008L110.919 44.1442H116.491V45.5419H111.712L110.844 46.3919V47.3552L111.75 48.2618H115.698L117.436 49.9617V52.285L115.717 54.0227H109.654ZM121.908 54.0227L120.17 52.3039V45.4664H119.131V44.1442H120.208L120.624 41.6132H121.832V44.1442H123.929V45.4664H121.832V51.7183L122.72 52.6439H124.363V54.0227H121.908ZM128.254 54.0227L126.289 52.0394V44.1442H127.951L127.933 51.6428L128.952 52.7005H131.408L133.353 50.755V44.1442H135.016V54.0227H133.353V52.4928L131.842 54.0227H128.254ZM139.853 54.0227L137.87 52.0394V46.1274L139.853 44.1442H143.48L145.01 45.7119V40.1021H146.672V54.0227H145.01V52.4739L143.48 54.0227H139.853ZM143.064 52.7005L145.01 50.7362V47.4496L143.064 45.4664H140.571L139.532 46.5052V51.6617L140.571 52.7005H143.064ZM151.511 54.0227L149.527 52.0394V46.1274L151.511 44.1442H156.195L158.178 46.1274V52.0394L156.195 54.0227H151.511ZM152.229 52.7005H155.477L156.516 51.6617L156.497 46.5052L155.477 45.4664H152.229L151.19 46.5052V51.6617L152.229 52.7005ZM163.649 54.0227V42.2554H159.777V40.1021H169.882V42.2554H166.01V54.0227H163.649ZM173.479 54.0227L171.496 52.0394V46.1274L173.479 44.1442H177.88L179.864 46.1274V49.6973H173.158V51.605L174.197 52.6439H179.694V54.0227H173.479ZM173.158 48.3751H178.201V46.5052L177.163 45.4664H174.197L173.158 46.5052V48.3751ZM184.491 54.0227L182.508 52.0394V46.1274L184.491 44.1442H189.006L190.743 45.863V47.4307H189.081V46.4108L188.137 45.4664H185.209L184.17 46.5052V51.5861L185.209 52.6439H190.649V54.0227H184.491ZM193.286 54.0227V40.1021H194.948V45.7119L196.459 44.1442H200.104L202.069 46.1274V54.0227H200.406V46.543L199.405 45.4664H196.893L194.948 47.4496V54.0227H193.286Z" fill="#191919"/>
<path d="M57.2777 60.0994C80.3515 50.6461 95.5869 35.8118 91.307 26.9662C87.0271 18.1206 64.8526 18.613 41.7787 28.0662C18.7049 37.5195 3.46961 52.3538 7.74949 61.1994C12.0294 70.0451 34.2039 69.5527 57.2777 60.0994Z" stroke="#191919" stroke-width="3.14803" stroke-miterlimit="10" stroke-linecap="round" stroke-linejoin="round"/>
<path d="M38.5996 58.6022C59.2893 71.9332 80.9543 76.3099 86.9898 68.3783C93.0252 60.4467 81.1458 43.2099 60.4562 29.8789C39.7665 16.548 18.1014 12.1712 12.066 20.1029C6.03055 28.0345 17.91 45.2713 38.5996 58.6022Z" stroke="#161616" stroke-width="3.14803" stroke-miterlimit="10" stroke-linecap="round" stroke-linejoin="round"/>
<path d="M49.5282 86.1657C60.0507 86.1657 68.5811 67.3246 68.5811 44.0828C68.5811 20.8411 60.0507 2 49.5282 2C39.0058 2 30.4754 20.8411 30.4754 44.0828C30.4754 67.3246 39.0058 86.1657 49.5282 86.1657Z" stroke="#161616" stroke-width="3.14803" stroke-miterlimit="10" stroke-linecap="round" stroke-linejoin="round"/>
<path d="M43.4304 51.491V37.5704H52.6101V39.157H45.1493V43.3879H51.8168V44.9557H45.1493V49.9044H52.6101V51.491H43.4304Z" fill="#191919"/>
</svg>
