<svg width="233" height="88" viewBox="0 0 233 88" fill="none" xmlns="http://www.w3.org/2000/svg">
<path d="M97.6016 54.0544V40.1338H107.121V42.287H99.9627V45.6869H106.498V47.8401H99.9627V51.9011H107.121V54.0544H97.6016ZM109.611 54.0544V52.6755H114.843L115.73 51.7689V50.5789L114.786 49.6345H110.876L109.138 47.9346V45.9324L110.876 44.1758H116.448V45.5736H111.669L110.8 46.4235V47.3868L111.707 48.2935H115.655L117.392 49.9934V52.3166L115.674 54.0544H109.611ZM121.865 54.0544L120.127 52.3355V45.498H119.088V44.1758H120.165L120.58 41.6448H121.789V44.1758H123.886V45.498H121.789V51.75L122.677 52.6755H124.32V54.0544H121.865ZM128.211 54.0544L126.246 52.0711V44.1758H127.908L127.889 51.6744L128.909 52.7322H131.365L133.31 50.7867V44.1758H134.973V54.0544H133.31V52.5244L131.799 54.0544H128.211ZM139.81 54.0544L137.827 52.0711V46.1591L139.81 44.1758H143.437L144.967 45.7435V40.1338H146.629V54.0544H144.967V52.5055L143.437 54.0544H139.81ZM143.021 52.7322L144.967 50.7678V47.4813L143.021 45.498H140.528L139.489 46.5368V51.6933L140.528 52.7322H143.021ZM151.468 54.0544L149.484 52.0711V46.1591L151.468 44.1758H156.152L158.135 46.1591V52.0711L156.152 54.0544H151.468ZM152.185 52.7322H155.434L156.473 51.6933L156.454 46.5368L155.434 45.498H152.185L151.147 46.5368V51.6933L152.185 52.7322ZM163.606 54.0544V42.287H159.734V40.1338H169.839V42.287H165.967V54.0544H163.606ZM173.436 54.0544L171.453 52.0711V46.1591L173.436 44.1758H177.837L179.82 46.1591V49.729H173.115V51.6367L174.154 52.6755H179.65V54.0544H173.436ZM173.115 48.4068H178.158V46.5368L177.119 45.498H174.154L173.115 46.5368V48.4068ZM184.448 54.0544L182.465 52.0711V46.1591L184.448 44.1758H188.963L190.7 45.8947V47.4624H189.038V46.4424L188.094 45.498H185.166L184.127 46.5368V51.6178L185.166 52.6755H190.606V54.0544H184.448ZM193.242 54.0544V40.1338H194.905V45.7435L196.416 44.1758H200.061L202.025 46.1591V54.0544H200.363V46.5746L199.362 45.498H196.85L194.905 47.4813V54.0544H193.242Z" fill="white"/>
<path d="M52.6029 59.9851C73.7935 50.5504 87.7854 35.7453 83.8548 26.9171C79.9242 18.0889 59.5595 18.5803 38.3689 28.015C17.1783 37.4496 3.18643 52.2547 7.117 61.0829C11.0476 69.9112 31.4123 69.4197 52.6029 59.9851Z" stroke="white" stroke-width="3.14803" stroke-miterlimit="10" stroke-linecap="round" stroke-linejoin="round"/>
<path d="M35.4493 58.4907C54.4503 71.7954 74.3471 76.1636 79.89 68.2476C85.4328 60.3316 74.523 43.1287 55.5219 29.824C36.5209 16.5193 16.6241 12.1511 11.0812 20.0672C5.53836 27.9832 16.4482 45.1861 35.4493 58.4907Z" stroke="white" stroke-width="3.14803" stroke-miterlimit="10" stroke-linecap="round" stroke-linejoin="round"/>
<path d="M45.4859 86C55.1496 86 62.9837 67.196 62.9837 44C62.9837 20.804 55.1496 2 45.4859 2C35.8222 2 27.9881 20.804 27.9881 44C27.9881 67.196 35.8222 86 45.4859 86Z" stroke="white" stroke-width="3.14803" stroke-miterlimit="10" stroke-linecap="round" stroke-linejoin="round"/>
<path d="M40.0199 51.431V37.5104H49.1996V39.097H41.7387V43.3279H48.4063V44.8957H41.7387V49.8444H49.1996V51.431H40.0199Z" fill="white"/>
</svg>
